<?xml version="1.0" encoding="utf-8"?>
<!-- Generator: Adobe Illustrator 22.0.1, SVG Export Plug-In . SVG Version: 6.00 Build 0)  -->
<svg version="1.1" id="Layer_1" xmlns="http://www.w3.org/2000/svg" xmlns:xlink="http://www.w3.org/1999/xlink" x="0px" y="0px"
	 viewBox="0 0 720 503.999" enable-background="new 0 0 720 503.999" xml:space="preserve">
<rect y="-0.271" fill="#FFFFFF" width="719.326" height="503.858"/>
<g opacity="0.28">
	<g>
		<path fill="#FFE1D7" d="M640.072,289.901c0-145.848-122.921-264.081-274.552-264.081S90.967,144.053,90.967,289.901
			c0,73.719,31.417,140.371,82.059,188.278h384.986C608.655,430.272,640.072,363.62,640.072,289.901z"/>
	</g>
</g>
<g>
	<g>
		<g>
			<path fill="#E8E8E8" d="M609.975,389.533L498.689,251.38l-12.262,77.796c24.85,19.604,45.553,48.739,75.511,56.606
				C578.222,390.059,594.269,391.218,609.975,389.533z"/>
		</g>
	</g>
	<g>
		<path fill="#54647F" d="M661.549,453.488l-51.574-64.025c-15.706,1.685-31.753,0.526-48.037-3.751
			c-29.957-7.868-50.661-37.002-75.511-56.607l-14.233,90.303L661.549,453.488z"/>
	</g>
	<g>
		<path fill="#5F6E8F" d="M506.466,349.596l4.02-34.596l-8.039,5.576l8.039-24.076l-4.622-21.757l-7.175-23.433l-29.999,50.748
			C477.908,320.454,491.1,336.3,506.466,349.596z"/>
	</g>
	<g>
		<path fill="#A7CBD3" d="M468.689,302.058l-24.191,40.923c14.09,22.559,33.311,39.817,54.529,51.187l7.438-44.572
			C491.1,336.3,477.908,320.454,468.689,302.058z"/>
	</g>
	<g>
		<path fill="#8FC6E5" d="M444.498,342.982l-43.451,73.504l93.614,3.846l4.366-26.163
			C477.809,382.799,458.588,365.541,444.498,342.982z"/>
	</g>
</g>
<g>
	<path fill="#E8E8E8" d="M105.607,381.184l108.691-138.153L240.46,316c-24.85,19.604-56.858,53.566-86.815,61.434
		C137.36,381.711,121.313,382.87,105.607,381.184z"/>
</g>
<g opacity="0.23">
	
		<ellipse transform="matrix(0.7071 -0.7071 0.7071 0.7071 -78.8247 281.7091)" fill="#F8DE9B" cx="300.641" cy="236.004" rx="93.528" ry="93.528"/>
</g>
<g>
	
		<ellipse transform="matrix(0.9599 -0.2803 0.2803 0.9599 -55.163 92.6488)" fill="#F8D989" cx="296.352" cy="239.194" rx="33.745" ry="33.745"/>
</g>
<g>
	<path fill="#99A6CC" d="M49.2,451.203l56.605-70.27c15.706,1.685,31.753,0.526,48.037-3.751
		c29.957-7.868,50.661-37.002,75.511-56.607l14.233,90.303L49.2,451.203z"/>
</g>
<g>
	<path fill="#5F6E8F" d="M244.21,293.633l-29.912-50.601l3.202,27.511l8.105,6.707L207,340.375
		C220.498,330.164,235.189,312.14,244.21,293.633z"/>
</g>
<g>
	<path fill="#54647F" d="M244.21,293.633c-9.022,18.508-21.186,32.787-37.21,46.742l6.959,45.515
		c21.218-11.37,40.44-28.628,54.529-51.187L244.21,293.633z"/>
</g>
<g>
	<path fill="#8FC6E5" d="M268.489,334.703l43.451,73.504l-93.614,3.846l-4.366-26.163
		C235.178,374.52,254.399,357.262,268.489,334.703z"/>
</g>
<g>
	<g>
		<path fill="#F9F9F7" d="M375.971,308.097l-31.433-121.722L197.263,400.204c34.236-5.007,68.313-8.778,100.764-22.299
			C331.678,363.02,354.857,336.406,375.971,308.097z"/>
	</g>
</g>
<g>
	<path fill="#A5B5D3" d="M298.027,377.904c-32.451,13.521-66.528,17.293-100.764,22.299l-16.236,23.572l224.338-1.851
		l-29.395-113.828C354.857,336.406,331.678,363.02,298.027,377.904z"/>
</g>
<g>
	<path fill="#FFFFFF" d="M444.349,386.904c15.435,0.297,41.853,5.471,47.096-5.723l-18.852-15.167l-36.028-89.644l-35.08-66.502
		l-99.481,177.372C349.451,377.815,396.9,385.955,444.349,386.904z"/>
</g>
<g>
	<path fill="#AFBFE2" d="M560.426,417.289c0,0-63.24-34.242-78.676-34.539c-47.449-0.949-132.621-4.935-180.069,4.491
		l-19.296,34.404l202.21,0.463l-2.113-9.618L560.426,417.289z"/>
</g>
<g>
	<g>
		<path fill="#99A6CC" d="M401.484,209.869l8.801,17.222l2.616,15.208l2.609-4.983l14.005,27.406l-5.108,5.821l5.168,37.828
			l7.259-6.312c3.777,7.732,11.018,24.73,17.395,39.983l9.271,6.072c7.387,17.826,14.164,36.595,14.164,36.595
			c20.839,9.472,37.731,10.4,60.023,6.307l-16.149-20.675L401.484,209.869z"/>
	</g>
</g>
<g>
	<polygon fill="#5F6E8F" points="359.535,287.893 389.194,232.301 344.537,186.375 354.283,227.577 346.158,241.537 	"/>
</g>
<g>
	<path fill="#5F6E8F" d="M498.384,382.904c-10.847-6.202-17.438-13.955-28.799-18.759l13.188,44.517l84.099,14.393l-30.279-33.441
		C520.999,393.708,512.962,392.377,498.384,382.904z"/>
</g>
<polygon fill="#2F472E" points="546.328,418.863 549.975,397.034 554.659,419.777 "/>
<g>
	<polygon fill="#40563F" points="566.872,420.653 570.481,397.034 575.989,423.275 	"/>
	<polygon fill="#40563F" points="574.75,424.75 577.133,399.27 582.839,426.46 	"/>
	<polygon fill="#40563F" points="628,440.992 630.116,418.365 635.183,442.511 	"/>
	<polygon fill="#40563F" points="591.433,429.154 594.013,398.202 599.446,429.865 	"/>
	<polygon fill="#40563F" points="611.754,432.597 614.335,401.645 619.767,433.308 	"/>
	<polygon fill="#40563F" points="557.28,419.597 561.167,394.169 566.872,421.357 	"/>
	<polygon fill="#40563F" points="582.839,425.371 586.464,393.6 591.433,425.304 	"/>
	<polygon fill="#2F472E" points="599.446,429.993 603.409,406.267 608.5,430.986 	"/>
	<polygon fill="#2F472E" points="586.906,426.946 590.552,405.117 595.237,427.86 	"/>
	<polygon fill="#2F472E" points="554.18,421.651 557.826,399.822 562.51,422.565 	"/>
	<polygon fill="#2F472E" points="608.5,433.474 611.349,409.748 615.009,434.468 	"/>
	<polygon fill="#2F472E" points="579.584,426.867 582.433,403.141 586.093,427.86 	"/>
	<polygon fill="#2F472E" points="623.75,436.847 626.599,415.75 630.259,437.731 	"/>
	<polygon fill="#2F472E" points="563.618,421.301 566.466,400.204 570.126,422.184 	"/>
	<polygon fill="#2F472E" points="630.259,439.148 633.757,424.143 638.25,439.777 	"/>
	<polygon fill="#2F472E" points="615.009,434.995 618.5,409.486 624.801,436.711 	"/>
</g>
<g>
	<polygon fill="#40563F" points="130.215,425.244 126.606,401.624 121.098,427.865 	"/>
	<polygon fill="#40563F" points="123.698,428.909 121.315,403.429 115.609,430.618 	"/>
	<polygon fill="#40563F" points="69.087,445.583 66.971,422.956 61.904,447.101 	"/>
	<polygon fill="#40563F" points="105.654,433.745 103.074,402.793 97.641,434.456 	"/>
	<polygon fill="#40563F" points="85.332,437.188 82.752,406.236 77.32,437.899 	"/>
	<polygon fill="#40563F" points="139.807,424.188 135.92,398.759 130.215,425.948 	"/>
	<polygon fill="#40563F" points="114.248,429.962 110.623,398.191 105.654,429.894 	"/>
	<polygon fill="#2F472E" points="97.641,434.583 93.678,410.858 88.587,435.577 	"/>
	<polygon fill="#2F472E" points="110.181,431.537 106.535,409.708 101.85,432.451 	"/>
	<polygon fill="#2F472E" points="142.907,426.242 139.261,404.413 134.576,427.156 	"/>
	<polygon fill="#2F472E" points="88.587,438.065 85.738,414.339 82.078,439.058 	"/>
	<polygon fill="#2F472E" points="120.451,429.74 117.602,406.015 113.942,430.734 	"/>
	<polygon fill="#2F472E" points="73.337,441.438 70.488,420.341 66.828,442.322 	"/>
	<polygon fill="#2F472E" points="65.899,446.247 62.401,431.242 57.908,446.875 	"/>
	<polygon fill="#2F472E" points="82.078,439.586 78.587,414.077 72.286,441.301 	"/>
</g>
<g>
	<polygon fill="#526D51" points="189.204,411.733 185.595,388.114 180.087,414.355 	"/>
	<polygon fill="#526D51" points="180.087,416.498 177.704,391.019 171.998,418.208 	"/>
	<polygon fill="#40563F" points="126.837,432.741 124.721,410.114 119.654,434.259 	"/>
	<polygon fill="#526D51" points="226.215,409.225 223.672,382.022 218.863,408.938 	"/>
	<polygon fill="#526D51" points="244.058,406.111 241.669,380.567 236.861,407.483 	"/>
	<polygon fill="#40563F" points="159.498,420.066 156.717,390.279 151.285,421.942 	"/>
	<polygon fill="#40563F" points="143.082,424.345 140.502,393.393 135.07,425.056 	"/>
	<polygon fill="#526D51" points="200.812,413.069 196.924,387.64 191.219,414.828 	"/>
	<polygon fill="#526D51" points="213.031,411.082 209.52,388.114 204.367,412.672 	"/>
	<polygon fill="#526D51" points="234.412,407.249 230.009,386.916 225.605,407.903 	"/>
	<polygon fill="#526D51" points="254.412,405.463 250.009,385.13 245.605,406.117 	"/>
	<polygon fill="#40563F" points="171.998,417.12 168.373,385.349 163.404,417.052 	"/>
	<polygon fill="#2F472E" points="155.391,421.741 151.428,398.015 146.337,422.734 	"/>
	<polygon fill="#2F472E" points="166.132,418.694 162.486,396.865 157.802,419.608 	"/>
	<polygon fill="#3D593B" points="207,412.36 203.354,390.531 198.669,413.274 	"/>
	<polygon fill="#3D593B" points="219.192,411.31 215.912,391.673 211.698,412.132 	"/>
	<polygon fill="#3D593B" points="239.854,406.451 236.896,386.916 233.868,406.987 	"/>
	<polygon fill="#3D593B" points="249.021,406.364 246.623,390.531 244.058,406.111 	"/>
	<polygon fill="#647F62" points="300.641,403.54 298.242,387.707 295.678,403.287 	"/>
	<polygon fill="#2F472E" points="501.509,409.819 499.111,393.986 496.546,409.566 	"/>
	<polygon fill="#2F472E" points="493.926,409.562 491.083,393.728 488.963,409.308 	"/>
	<polygon fill="#2F472E" points="520.762,413.034 518.364,397.2 515.799,412.78 	"/>
	<polygon fill="#3D593B" points="228.589,408.947 225.977,390.897 222.622,409.702 	"/>
	<polygon fill="#3D593B" points="515.799,412.554 513.187,394.504 510.485,412.022 	"/>
	<polygon fill="#3D593B" points="504.166,410.67 501.554,392.62 498.852,410.138 	"/>
	<polygon fill="#3D593B" points="486.916,410.329 483.813,395.467 482.773,409.915 	"/>
	<polygon fill="#647F62" points="480.91,408.264 476.994,395.54 475.482,407.722 	"/>
	<polygon fill="#647F62" points="471.23,407.021 468.722,398.202 467.94,406.665 	"/>
	<polygon fill="#2F472E" points="146.337,425.222 143.488,401.497 139.828,426.216 	"/>
	<polygon fill="#2F472E" points="175.253,418.615 172.404,394.889 168.744,419.608 	"/>
	<polygon fill="#526D51" points="269.42,406.663 266.819,378.799 261.738,408.418 	"/>
	<polygon fill="#526D51" points="279.447,403.907 275.427,383.667 271.408,403.844 	"/>
	<polygon fill="#40563F" points="510.485,412.022 506.466,391.782 502.446,411.959 	"/>
	<polygon fill="#3D593B" points="263.912,408.23 260.205,386.036 255.442,409.159 	"/>
	<polygon fill="#546D50" points="294.409,404.821 290.998,384.401 286.617,405.676 	"/>
	<polygon fill="#647F62" points="285.429,405.671 282.764,383.477 279.34,406.6 	"/>
	<polygon fill="#3D593B" points="527.41,414.539 524.745,392.345 521.321,415.468 	"/>
	<polygon fill="#2F472E" points="536.397,415.004 533.597,391.687 530.309,415.933 	"/>
	<polygon fill="#2F472E" points="133.291,426.773 130.442,405.676 126.782,427.657 	"/>
	<polygon fill="#3D593B" points="194.474,413.049 191.625,391.952 187.965,413.933 	"/>
	<polygon fill="#2F472E" points="139.828,426.744 136.337,401.234 130.036,428.459 	"/>
</g>
<polygon fill="#40563F" points="535.114,414.536 536.526,397.034 540.259,415.501 "/>
<polygon fill="#40563F" points="527.41,413.31 530.309,397.727 533.353,415.194 "/>
<polygon fill="#40563F" points="551.131,418.976 554.174,395.039 557.229,418.978 "/>
<polygon fill="#40563F" points="542.036,416.388 545.425,387.422 551.131,418.374 "/>
<polygon fill="#2F472E" points="538.636,415.726 542.003,395.571 546.328,416.57 "/>
<g>
	<g>
		<path fill="#94A576" d="M92,441.999c36-1,69-9,102-21c23.543-9.155,48.416-13.178,73.459-16.628
			c-129.775,8.306-227.454,34.731-240.091,66.909C44.007,454.116,68.742,442.86,92,441.999z"/>
		<path fill="#9FAD82" d="M258,469.999c-16,2-31,9-47,7c-54.538-6.925-109.075-2.609-162.964,2.568h263.929
			c-13.291-2.278-26.546-5.501-39.965-9.568C267,468.999,263,469.999,258,469.999z"/>
		<path fill="#9FAD82" d="M682.978,478.95c-1.651-1.942-4.621-1.951-6.978-1.951c-32-3-65,0-97-1c-11-1-21-6-32-2
			c-4.419,2.039-8.839,3.956-13.297,5.568h149.232C682.949,479.361,682.965,479.155,682.978,478.95z"/>
		<path fill="#A6B68F" d="M579,475.999c32,1,65-2,97,1c2.358,0,5.327,0.009,6.978,1.951c0.012-0.191,0.022-0.381,0.022-0.573
			c0-11.552-10.951-22.505-30.526-32.331c-12.342-0.349-25.015,2.136-36.474-1.047c-17-6-35-10-54-12c-10-1-15-13-25-14
			c-29.76-3.451-59.149-9.132-88.486-14.159c-29.794-2.076-61.352-3.196-94.035-3.196c-30.129,0-59.301,0.952-87.019,2.727
			c-25.044,3.449-49.917,7.472-73.459,16.628c-33,12-66,20-102,21c-23.258,0.861-47.993,12.117-64.631,29.281
			c-0.918,2.337-1.411,4.703-1.411,7.097c0,0.398,0.039,0.793,0.064,1.19h22.014c53.889-5.177,108.426-9.493,162.964-2.568
			c16,2,31-5,47-7c5,0,9-1,14,0c13.42,4.067,26.675,7.289,39.965,9.568h221.738c4.458-1.612,8.878-3.528,13.297-5.568
			C558,469.999,568,474.999,579,475.999z"/>
		<path fill="#94A576" d="M562,432.999c19,2,37,6,54,12c11.458,3.183,24.132,0.697,36.474,1.047
			c-39.301-19.727-113.439-34.899-203.96-41.205c29.337,5.027,58.726,10.708,88.486,14.159C547,419.999,552,431.999,562,432.999z"/>
	</g>
</g>
<g opacity="0.92">
	<g opacity="0.6">
		<path fill="#FFFFFF" d="M471.806,145.688c-13.766-1.695-25.242-3.448-26.836-4.731c-4.543-3.657-5.652-23.603-28.558-23.431
			c-21.586,0.162-24.21,7.722-24.858,16.94c-0.664,9.452-5.355-2.744-19.129-2.469c-4.98,0.099-9.711,3.986-9.471,10.796
			C397.859,151.85,435.58,150.879,471.806,145.688z"/>
	</g>
	<g>
		<path fill="#FFFFFF" d="M472.071,145.721c-0.09-0.011-0.176-0.022-0.266-0.033c-36.226,5.191-73.947,6.162-108.853-2.896
			c0.071,2.029,0.564,4.306,1.647,6.834c0.408,0.953,1.513,1.603,2.759,1.603h134.682
			C506.279,151.23,476.261,146.236,472.071,145.721z"/>
	</g>
</g>
<g opacity="0.92">
	<g opacity="0.54">
		<path fill="#FFFFFF" d="M217.435,195.65c12.047-1.483,22.09-3.017,23.485-4.141c3.976-3.201,4.947-20.656,24.992-20.505
			c18.89,0.142,21.187,6.758,21.754,14.824c0.582,8.272,4.687-2.401,16.741-2.16c4.358,0.087,8.498,3.488,8.288,9.448
			C282.148,201.043,249.137,200.193,217.435,195.65z"/>
	</g>
	<g>
		<path fill="#FFFFFF" d="M217.202,195.679c0.078-0.01,0.154-0.019,0.232-0.029c31.703,4.543,64.714,5.392,95.261-2.534
			c-0.063,1.776-0.494,3.768-1.442,5.981c-0.357,0.833-1.324,1.403-2.415,1.403H184.941
			C181.233,200.5,213.536,196.13,217.202,195.679z"/>
	</g>
</g>
<g>
	<g opacity="0.69">
		<path fill="#FFFFFF" d="M503.701,285.038c9.141-1.125,16.761-2.29,17.82-3.142c3.017-2.429,3.753-15.674,18.964-15.559
			c14.334,0.108,16.077,5.128,16.507,11.249c0.441,6.276,3.556-1.822,12.703-1.639c3.307,0.066,6.448,2.647,6.289,7.169
			C552.805,289.129,527.756,288.485,503.701,285.038z"/>
	</g>
	<g>
		<path fill="#FFFFFF" d="M503.524,285.06c0.059-0.007,0.117-0.015,0.176-0.022c24.056,3.447,49.104,4.092,72.283-1.923
			c-0.047,1.347-0.375,2.859-1.094,4.538c-0.271,0.632-1.005,1.065-1.832,1.065h-89.014
			C481.23,288.717,500.743,285.401,503.524,285.06z"/>
	</g>
</g>
<g>
	<g opacity="0.69">
		<path fill="#FFFFFF" d="M118.106,306.657c9.384-1.155,17.207-2.351,18.294-3.226c3.097-2.493,3.853-16.091,19.468-15.973
			c14.715,0.111,16.504,5.264,16.946,11.548c0.453,6.443,3.651-1.87,13.041-1.683c3.395,0.068,6.62,2.717,6.456,7.36
			C168.516,310.858,142.801,310.196,118.106,306.657z"/>
	</g>
	<g>
		<path fill="#FFFFFF" d="M117.925,306.68c0.061-0.008,0.12-0.015,0.181-0.022c24.696,3.539,50.411,4.201,74.206-1.974
			c-0.049,1.383-0.384,2.935-1.123,4.659c-0.278,0.649-1.031,1.093-1.881,1.093H97.925
			C95.037,310.435,115.069,307.031,117.925,306.68z"/>
	</g>
</g>
<g opacity="0.92">
	<g>
		<path opacity="0.6" fill="#FFFFFF" d="M254.728,275.642c10.104-1.244,18.527-2.531,19.697-3.473
			c3.334-2.685,4.149-17.324,20.961-17.198c15.843,0.119,17.77,5.668,18.245,12.433c0.488,6.937,3.931-2.014,14.041-1.812
			c3.655,0.073,7.127,2.925,6.951,7.924C309.003,280.165,281.317,279.452,254.728,275.642z"/>
	</g>
	<g>
		<path fill="#FFFFFF" d="M254.533,275.667c0.066-0.008,0.129-0.016,0.195-0.024c26.589,3.81,54.275,4.523,79.895-2.126
			c-0.052,1.489-0.414,3.161-1.209,5.016c-0.3,0.699-1.11,1.177-2.025,1.177H233C229.89,279.71,251.458,276.044,254.533,275.667z"/>
	</g>
</g>
<g>
	<g opacity="0.69">
		<path fill="#FFFFFF" d="M402.578,234.832c12.201-1.502,22.373-3.056,23.786-4.194c4.026-3.242,5.01-20.921,25.313-20.768
			c19.133,0.144,21.459,6.844,22.033,15.015c0.589,8.378,4.747-2.432,16.956-2.188c4.414,0.088,8.607,3.533,8.395,9.569
			C468.122,240.293,434.688,239.433,402.578,234.832z"/>
	</g>
	<g>
		<path fill="#FFFFFF" d="M402.343,234.861c0.079-0.01,0.156-0.019,0.235-0.029c32.11,4.601,65.544,5.462,96.482-2.567
			c-0.063,1.798-0.5,3.817-1.46,6.057c-0.362,0.844-1.341,1.421-2.446,1.421H376.34C372.584,239.744,398.63,235.317,402.343,234.861
			z"/>
	</g>
</g>
<polygon fill="#DCC799" points="358.655,479.549 290.351,440.285 352.667,410.741 340.337,401.697 348.951,401.645 365.25,411.232 
	349.55,435.425 529.268,479.549 "/>
<path opacity="0.59" fill="#97A57F" d="M288.334,440.268l2.017,0.035l62.315-29.544l-0.412-0.32c0,0-15.066,7.367-16.598,7.746
	c-1.532,0.378-15.076,6.71-16.827,7.853c-1.955,1.276-15.08,6.588-17.58,8.401C299.084,436.008,288.334,440.268,288.334,440.268z"/>
<path fill="#97A57F" d="M288.334,440.268c0,0,4.862,4.528,13.668,8.732c6.278,2.997,21.509,16.331,29.486,19.271
	c13.114,4.834,19.846,11.29,19.846,11.29l7.321-0.012l-68.304-39.246L288.334,440.268z"/>
<path fill="#97A57F" d="M349.55,435.349l179.718,44.124l12.768,0.037c0,0-12.617-3.662-22.068-5.113
	c-22.134-3.397-37.522-11.006-50.383-12.473c-22.023-2.511-32.324-7.426-38.918-8.436c-2.32-0.355-8.541-1.692-16.541-3.492
	c-5.096-1.146-11.845-3.35-18.501-4.371c-11.256-1.728-16.939-4.502-24.875-6.375c-11.184-2.639-19.333-3.901-19.333-3.901H349.55z"
	/>
<path opacity="0.59" fill="#97A57F" d="M365.25,411.232l-15.7,24.192l1.101-0.078c0,0,1.733-1.426,2.31-3.746
	c0.577-2.32,2.586-3.174,3.841-6.23c1.256-3.055,8.718-14.139,8.718-14.139L365.25,411.232z"/>
<polygon opacity="0.46" fill="#97A57F" points="352.255,410.439 340.337,401.697 340.062,401.718 351.631,410.722 "/>
<g opacity="0.4">
	<path fill="#B094A0" d="M418.577,187.784c0,0-2.426-5.928-9.699-1.079C408.877,186.705,411.504,173.234,418.577,187.784z"/>
	<path fill="#B094A0" d="M418.577,186.841c0,0,3.839-6.791,15.356-3.299C433.933,183.541,420.395,168.588,418.577,186.841z"/>
</g>
<g opacity="0.25">
	<path fill="#B094A0" d="M411.302,168.429c0,0-1.956-4.78-7.822-0.87C403.48,167.559,405.599,156.695,411.302,168.429z"/>
	<path fill="#B094A0" d="M411.302,167.668c0,0,3.096-5.477,12.384-2.661C423.686,165.008,412.768,152.948,411.302,167.668z"/>
</g>
<g opacity="0.25">
	<path fill="#B094A0" d="M309.658,172.465c0,0-1.956-4.78-7.822-0.87C301.836,171.595,303.954,160.731,309.658,172.465z"/>
	<path fill="#B094A0" d="M309.658,171.704c0,0,3.096-5.477,12.384-2.661C322.042,169.044,311.124,156.984,309.658,171.704z"/>
</g>
</svg>
